#!OML:ASF H:\Punching\Project 1\Capture day 1\Session 1\female.ASF
:FULLY-SPECIFIED
:DEGREES
2498
root 1.56772 15.5139 3.8153 -34.9144 36.5698 -18.0182
lowerback 10.6644 -4.90789 -3.70517
upperback 6.0537 -6.7157 9.68843
thorax 2.15842 -3.73639 13.1748
lowerneck -7.51034 -5.48815 4.56613
upperneck 46.8082 -9.33234 -0.28666
head 18.9335 -2.63179 -2.40451
rclavicle -5.24792e-014 6.36111e-015
rhumerus -16.1681 1.02667 -54.8969
rradius 130.176
rwrist -12.9588
rhand -34.2374 9.34569
rfingers 7.12502
rthumb -7.40875 -20.5046
lclavicle -5.24792e-014 6.36111e-015
lhumerus 8.07039 -42.9311 87.4804
lradius 128.375
lwrist -1.04658
lhand -31.1978 -0.728018
lfingers 7.12502
lthumb -4.47418 29.2047
rfemur -111.258 -25.7942 -4.67953
rtibia 52.3905
rfoot 19.2049 -13.8162
rtoes -27.9147
lfemur 14.4797 -9.96322 -19.0807
ltibia 30.0876
lfoot -10.1456 -5.6766
ltoes 24.9396
2499
root 1.56802 15.4921 3.81173 -34.8118 36.7567 -18.051
lowerback 10.6718 -4.85366 -3.58743
upperback 6.06245 -6.62728 9.70728
thorax 2.12791 -3.68382 13.1218
lowerneck -7.55796 -5.55947 4.50108
upperneck 46.7685 -9.47435 -0.163754
head 18.9335 -2.68176 -2.35731
rclavicle 5.96354e-015 -2.22639e-014
rhumerus -15.648 0.920662 -54.7787
rradius 129.99
rwrist -12.8396
rhand -34.2251 9.35211
rfingers 7.12502
rthumb -7.3968 -20.4986
lclavicle 5.96354e-015 -2.22639e-014
lhumerus 8.01649 -43.0057 87.4988
lradius 128.343
lwrist -1.19261
lhand -30.8717 -0.648054
lfingers 7.12502
lthumb -4.15921 29.2911
rfemur -113.228 -25.6772 -1.65379
rtibia 56.4221
rfoot 19.0488 -11.3699
rtoes -28.2971
lfemur 14.2656 -9.96375 -19.1333
ltibia 30.2432
lfoot -10.6752 -5.59932
ltoes 25.3887
2500
root 1.56728 15.4694 3.8048 -34.6373 36.9074 -17.9953
lowerback 10.7047 -4.78177 -3.48771
upperback 6.07246 -6.51664 9.69656
thorax 2.07729 -3.61886 13.0465
lowerneck -7.61669 -5.62197 4.46415
upperneck 46.7258 -9.61324 -0.0372073
head 18.934 -2.72548 -2.31353
rclavicle -7.97127e-014 1.03368e-013
rhumerus -15.1124 0.807822 -54.7197
rradius 129.806
rwrist -12.7176
rhand -34.2173 9.31888
rfingers 7.12502
rthumb -7.38931 -20.5321
lclavicle -7.97127e-014 1.03368e-013
lhumerus 7.95417 -43.0807 87.4823
lradius 128.327
lwrist -1.31806
lhand -30.5873 -0.573628
lfingers 7.12502
lthumb -3.88457 29.3707
rfemur -115.027 -25.4705 1.07147
rtibia 60.6584
rfoot 18.7958 -9.14139
rtoes -28.8585
lfemur 14.068 -9.95125 -19.2624
ltibia 30.3384
lfoot -11.2221 -5.40872
ltoes 25.7421
2501
root 1.56512 15.4459 3.79482 -34.3953 37.017 -17.8584
lowerback 10.7662 -4.69347 -3.40717
upperback 6.07264 -6.38509 9.65706
thorax 1.99369 -3.54138 12.951
lowerneck -7.67677 -5.67384 4.45605
upperneck 46.6876 -9.74454 0.0897798
head 18.9369 -2.76112 -2.27381
rclavicle -3.95581e-014 -2.06736e-014
rhumerus -14.5954 0.712632 -54.7239
rradius 129.636
rwrist -12.5936
rhand -34.2203 9.29636
rfingers 7.12502
rthumb -7.39222 -20.5545
lclavicle -3.95581e-014 -2.06736e-014
lhumerus 7.85836 -43.1616 87.4464
lradius 128.319
lwrist -1.39772
lhand -30.378 -0.575639
lfingers 7.12502
lthumb -3.68246 29.3723
rfemur -116.628 -25.1857 3.50482
rtibia 65.0218
rfoot 18.475 -7.05649
rtoes -29.6354
lfemur 13.8702 -9.91711 -19.4532
ltibia 30.3919
lfoot -11.786 -5.09413
ltoes 25.9962
2502
root 1.56088 15.4211 3.78176 -34.0776 37.0858 -17.6461
lowerback 10.8471 -4.58714 -3.35098
upperback 6.06009 -6.23114 9.59374
thorax 1.88024 -3.45113 12.8433
lowerneck -7.74207 -5.7174 4.47424
upperneck 46.649 -9.87018 0.214659
head 18.9397 -2.79053 -2.23925
rclavicle -5.18828e-014 -4.77083e-015
rhumerus -14.1095 0.636082 -54.7832
rradius 129.502
rwrist -12.4983
rhand -34.2281 9.29215
rfingers 7.12502
rthumb -7.39978 -20.5584
lclavicle -5.18828e-014 -4.77083e-015
lhumerus 7.75689 -43.2479 87.3748
lradius 128.312
lwrist -1.40032
lhand -30.2525 -0.663721
lfingers 7.12502
lthumb -3.56134 29.2863
rfemur -118.002 -24.8422 5.65053
rtibia 69.4306
rfoot 18.0318 -5.10945
rtoes -30.5933
lfemur 13.6371 -9.85091 -19.6934
ltibia 30.433
lfoot -12.3554 -4.67745
ltoes 26.1845
2503
root 1.55379 15.3954 3.76447 -33.6723 37.1012 -17.3779
lowerback 10.9287 -4.4641 -3.30199
upperback 6.0372 -6.05544 9.51596
thorax 1.74939 -3.34875 12.7217
lowerneck -7.81591 -5.75286 4.50066
upperneck 46.5989 -9.99196 0.352414
head 18.9386 -2.81632 -2.19977
rclavicle -5.28767e-014 -4.6118e-014
rhumerus -13.6427 0.577502 -54.8974
rradius 129.415
rwrist -12.4351
rhand -34.239 9.29351
rfingers 7.12502
rthumb -7.41025 -20.5567
lclavicle -5.28767e-014 -4.6118e-014
lhumerus 7.68361 -43.3389 87.2476
lradius 128.327
lwrist -1.31457
lhand -30.1797 -0.722696
lfingers 7.12502
lthumb -3.49102 29.2285
rfemur -119.149 -24.4446 7.54214
rtibia 73.8265
rfoot 17.4483 -3.32572
rtoes -31.518
lfemur 13.3243 -9.75368 -19.9556
ltibia 30.4974
lfoot -12.9337 -4.18075
ltoes 26.3026
2504
root 1.54411 15.3693 3.7435 -33.1939 37.0622 -17.0723
lowerback 11.015 -4.3294 -3.25176
upperback 5.99537 -5.86356 9.42821
thorax 1.59105 -3.23625 12.5873
lowerneck -7.88956 -5.7776 4.5298
upperneck 46.5375 -10.1028 0.501796
head 18.9319 -2.83697 -2.15344
rclavicle -1.56046e-014 -4.92986e-014
rhumerus -13.213 0.556293 -55.055
rradius 129.383
rwrist -12.4157
rhand -34.2562 9.30266
rfingers 7.12502
rthumb -7.42682 -20.547
lclavicle -1.56046e-014 -4.92986e-014
lhumerus 7.61295 -43.4333 87.0852
lradius 128.371
lwrist -1.16523
lhand -30.1403 -0.76879
lfingers 7.12502
lthumb -3.45291 29.183
rfemur -120.057 -24.0102 9.21717
rtibia 78.1646
rfoot 16.7127 -1.77129
rtoes -32.1983
lfemur 12.9188 -9.64452 -20.2286
ltibia 30.6203
lfoot -13.5186 -3.60924
ltoes 26.3257
2505
root 1.53258 15.3421 3.72026 -32.6545 36.9772 -16.7429
lowerback 11.0774 -4.19189 -3.20535
upperback 5.95058 -5.66952 9.33599
thorax 1.44316 -3.12353 12.4468
lowerneck -7.97751 -5.7872 4.55923
upperneck 46.4596 -10.1926 0.654458
head 18.9195 -2.85016 -2.1029
rclavicle 1.32092e-013 -2.70347e-014
rhumerus -12.8003 0.57908 -55.2477
rradius 129.408
rwrist -12.4325
rhand -34.2863 9.27674
rfingers 7.12502
rthumb -7.45596 -20.5719
lclavicle 1.32092e-013 -2.70347e-014
lhumerus 7.57864 -43.5037 86.8692
lradius 128.435
lwrist -0.979544
lhand -30.1132 -0.796315
lfingers 7.12502
lthumb -3.42679 29.1559
rfemur -120.728 -23.5604 10.6977
rtibia 82.4271
rfoot 15.8492 -0.465189
rtoes -32.6013
lfemur 12.4123 -9.53885 -20.5091
ltibia 30.8323
lfoot -14.1018 -2.94351
ltoes 26.2096
2506
root 1.51873 15.3148 3.69312 -32.0737 36.8245 -16.4363
lowerback 11.1203 -4.05401 -3.11266
upperback 5.90827 -5.4711 9.25175
thorax 1.3046 -3.008 12.2847
lowerneck -8.07889 -5.78565 4.58504
upperneck 46.3513 -10.2677 0.815738
head 18.8923 -2.85955 -2.04558
rclavicle 1.05356e-014 2.70347e-014
rhumerus -12.3818 0.630848 -55.4665
rradius 129.47
rwrist -12.4855
rhand -34.3255 9.24034
rfingers 7.12502
rthumb -7.49375 -20.6069
lclavicle 1.05356e-014 2.70347e-014
lhumerus 7.59922 -43.5457 86.5915
lradius 128.525
lwrist -0.802845
lhand -30.0652 -0.741674
lfingers 7.12502
lthumb -3.38043 29.2113
rfemur -121.142 -23.0918 12.0428
rtibia 86.5761
rfoot 14.8766 0.548452
rtoes -32.6719
lfemur 11.7759 -9.43643 -20.7464
ltibia 31.1549
lfoot -14.6709 -2.19462
ltoes 25.9305
2507
root 1.5036 15.2882 3.66301 -31.4893 36.6107 -16.1639
lowerback 11.1599 -3.92287 -2.97828
upperback 5.87144 -5.27798 9.17753
thorax 1.17346 -2.89498 12.1085
lowerneck -8.19212 -5.76685 4.61147
upperneck 46.2173 -10.3136 0.971577
head 18.8515 -2.86021 -1.98668
rclavicle -2.82274e-014 -1.59028e-015
rhumerus -11.9644 0.728842 -55.6948
rradius 129.559
rwrist -12.5716
rhand -34.3776 9.2257
rfingers 7.12502
rthumb -7.54408 -20.6198
lclavicle -2.82274e-014 -1.59028e-015
lhumerus 7.65638 -43.5383 86.2747
lradius 128.626
lwrist -0.675109
lhand -29.9915 -0.680994
lfingers 7.12502
lthumb -3.30922 29.2731
rfemur -121.313 -22.6106 13.3127
rtibia 90.6266
rfoot 13.8542 1.38415
rtoes -32.6222
lfemur 11.0398 -9.34874 -20.9421
ltibia 31.5956
lfoot -15.2057 -1.39008
ltoes 25.5464
2508
root 1.48689 15.2623 3.6293 -30.9037 36.3436 -15.9298
lowerback 11.1985 -3.7993 -2.80191
upperback 5.85006 -5.09136 9.11666
thorax 1.05995 -2.7859 11.9217
lowerneck -8.32735 -5.73235 4.63838
upperneck 46.0477 -10.3312 1.11796
head 18.7927 -2.85359 -1.92853
rclavicle 4.8901e-014 3.97569e-014
rhumerus -11.5156 0.856009 -55.9165
rradius 129.656
rwrist -12.6808
rhand -34.4289 9.2315
rfingers 7.12502
rthumb -7.59353 -20.6122
lclavicle 4.8901e-014 3.97569e-014
lhumerus 7.77581 -43.4704 85.9101
lradius 128.737
lwrist -0.610287
lhand -29.8876 -0.608391
lfingers 7.12502
lthumb -3.2089 29.3472
rfemur -121.215 -22.1346 14.5083
rtibia 94.5387
rfoot 12.833 2.07165
rtoes -32.4218
lfemur 10.2097 -9.2823 -21.0913
ltibia 32.142
lfoot -15.6874 -0.601527
ltoes 25.1934
2509
root 1.46885 15.2381 3.59176 -30.3272 36.0398 -15.7339
lowerback 11.2508 -3.68835 -2.59424
upperback 5.83592 -4.91832 9.06634
thorax 0.949795 -2.68385 11.7299
lowerneck -8.47372 -5.68212 4.67136
upperneck 45.8477 -10.318 1.24742
head 18.7154 -2.83858 -1.87479
rclavicle -1.59028e-014 -2.22639e-014
rhumerus -11.0441 1.02096 -56.1239
rradius 129.745
rwrist -12.796
rhand -34.4741 9.28742
rfingers 7.12502
rthumb -7.63723 -20.5547
lclavicle -1.59028e-014 -2.22639e-014
lhumerus 7.92959 -43.3444 85.5215
lradius 128.849
lwrist -0.615512
lhand -29.7753 -0.551482
lfingers 7.12502
lthumb -3.10048 29.4057
rfemur -120.857 -21.6789 15.6605
rtibia 98.3136
rfoot 11.8219 2.63756
rtoes -32.0735
lfemur 9.3081 -9.24331 -21.1974
ltibia 32.7654
lfoot -16.105 0.132478
ltoes 24.9076
